<?xml version="1.0" standalone="no"?>
<!DOCTYPE svg PUBLIC "-//W3C//DTD SVG 20010904//EN"
 "http://www.w3.org/TR/2001/REC-SVG-20010904/DTD/svg10.dtd">
<svg version="1.0" xmlns="http://www.w3.org/2000/svg"
 width="225.000000pt" height="225.000000pt" viewBox="0 0 225.000000 225.000000"
 preserveAspectRatio="xMidYMid meet">
<metadata>
Created by potrace 1.14, written by Peter Selinger 2001-2017
</metadata>
<g transform="translate(0.000000,225.000000) scale(0.100000,-0.100000)"
fill="#000000" stroke="none">
<path d="M192 1951 c-70 -24 -118 -65 -156 -131 l-31 -55 0 -636 0 -635 30
-59 c36 -70 93 -118 167 -140 78 -23 1768 -23 1846 0 69 21 129 69 166 135
l31 55 0 640 0 640 -31 55 c-17 30 -50 70 -73 87 -84 65 -54 63 -1020 63 -822
-1 -879 -2 -929 -19z m1796 -130 c-4 -10 -855 -741 -863 -741 -8 0 -859 731
-863 741 -2 5 375 9 863 9 488 0 865 -4 863 -9z m-1540 -348 c158 -135 287
-251 287 -256 0 -12 -577 -676 -587 -676 -5 -1 -8 265 -8 589 0 396 3 590 10
590 6 0 140 -111 298 -247z m1662 -343 c0 -324 -3 -590 -7 -589 -12 1 -588
664 -588 676 0 13 566 501 583 502 9 1 12 -123 12 -589z m-1133 -110 c95 -82
122 -100 148 -100 26 0 53 18 148 100 64 55 120 100 125 100 12 0 611 -687
605 -694 -8 -8 -1748 -8 -1756 0 -6 7 593 694 605 694 5 0 61 -45 125 -100z"/>
</g>
</svg>
