<?xml version="1.0" encoding="UTF-8" standalone="no"?>
<!-- Created with Inkscape (http://www.inkscape.org/) -->

<svg
   xmlns:dc="http://purl.org/dc/elements/1.1/"
   xmlns:cc="http://creativecommons.org/ns#"
   xmlns:rdf="http://www.w3.org/1999/02/22-rdf-syntax-ns#"
   xmlns:svg="http://www.w3.org/2000/svg"
   xmlns="http://www.w3.org/2000/svg"
   xmlns:sodipodi="http://sodipodi.sourceforge.net/DTD/sodipodi-0.dtd"
   xmlns:inkscape="http://www.inkscape.org/namespaces/inkscape"
   width="221.19481mm"
   height="20.144661mm"
   viewBox="0 0 221.19481 20.144661"
   version="1.1"
   id="svg8"
   inkscape:version="0.92.2 (5c3e80d, 2017-08-06)"
   sodipodi:docname="nombre.svg">
  <defs
     id="defs2" />
  <sodipodi:namedview
     id="base"
     pagecolor="#ffffff"
     bordercolor="#666666"
     borderopacity="1.0"
     inkscape:pageopacity="0.0"
     inkscape:pageshadow="2"
     inkscape:zoom="0.49497475"
     inkscape:cx="704.2365"
     inkscape:cy="337.41582"
     inkscape:document-units="mm"
     inkscape:current-layer="layer2"
     showgrid="false"
     inkscape:window-width="1366"
     inkscape:window-height="715"
     inkscape:window-x="-8"
     inkscape:window-y="-8"
     inkscape:window-maximized="1" />
  <metadata
     id="metadata5">
    <rdf:RDF>
      <cc:Work
         rdf:about="">
        <dc:format>image/svg+xml</dc:format>
        <dc:type
           rdf:resource="http://purl.org/dc/dcmitype/StillImage" />
        <dc:title />
      </cc:Work>
    </rdf:RDF>
  </metadata>
  <g
     inkscape:groupmode="layer"
     id="layer2"
     inkscape:label="Capa 2"
     transform="translate(20.248164,-83.779493)">
    <path
       style="fill:#000065;fill-opacity:1;stroke:#000065;stroke-width:0.26458332px;stroke-linecap:butt;stroke-linejoin:miter;stroke-opacity:1"
       d="m -17.149956,90.986288 c -1.243798,1.900396 0.753624,2.578486 2.605878,3.173827 3.139945,0.884116 6.5598593,0.128413 10.3232853,-2.639285 2.102235,-1.713023 4.08845498,-3.622448 4.57699098,-5.779704 0.161044,-1.11129 -0.34388,-1.551601 -2.13815598,-0.06682 -3.749693,4.955736 -8.3089863,9.975839 -12.4280333,14.03165 -2.045967,1.620764 -3.822562,2.933664 -5.245165,3.842004 -0.60893,-0.18701 -0.890722,-0.6739 -0.434313,-1.83748 5.383077,-2.971059 12.6058783,-2.425941 15.3011813,-1.971115 2.02369,0.466835 3.306736,1.015955 4.54358198,1.570215 -10.28634828,-2.150533 -15.13722828,-0.30939 -19.84476328,1.63702 8.295176,-5.778435 11.4645183,-11.867525 17.1052503,-17.806835 1.439739,-2.001466 5.545517,-1.654847 4.109269,1.971114 -4.802578,6.595684 -8.730791,6.973662 -12.7621203,8.084903 -3.898431,0.598496 -6.99902,-0.683052 -7.717407,-2.706104 -0.27229,-1.38733 1.012984,-2.134031 2.004521,-1.50339 z"
       id="path3764"
       inkscape:connector-curvature="0"
       sodipodi:nodetypes="cccccccccccccccc" />
    <path
       style="fill:#000065;stroke:#000065;stroke-width:0.26458332px;stroke-linecap:butt;stroke-linejoin:miter;stroke-opacity:1"
       d="M -0.51242772,91.921732 -4.4212447,97.33394 c -0.579833,1.314481 1.067843,1.914337 1.80407,1.336349 l 4.142677,-3.842001 c -2.43258002,4.065555 -0.77006003,4.466704 0.03341,3.975634 l 3.140417,-2.438834 c -1.172365,3.124388 0.590822,2.823287 1.670435,1.937706 1.359022,-1.202312 2.642796,-2.479871 3.9422257,-3.741775 l -4.4767647,3.474503 c -0.326501,0.09492 -0.168802,-0.384236 -0.100226,-0.668173 0.431381,-1.625946 2.225734,-3.939673 3.207235,-4.109268 -0.06368,-0.688541 -0.85316,-1.189438 -1.102487,-1.00226 -2.500158,3.32559 -4.037114,4.189664 -5.779704,5.57925 -0.620241,0.478494 -1.20983803,0.442544 -0.634766,-0.601355 0.798669,-1.257348 2.091544,-3.915143 3.808591,-4.242906 0.05363,-0.80908 -1.260964,-1.245358 -1.469982,-1.069078 -3.55003702,4.007589 -3.97508602,4.015426 -6.046973,5.779703 -0.632332,0.484765 -1.128846,0.467878 -0.567948,-0.501128 0.775522,-1.369016 2.48804798,-4.203326 3.57472998,-4.276313 -0.106613,-0.634238 -0.795975,-1.338341 -1.236123,-1.002262 z"
       id="path4571"
       inkscape:connector-curvature="0"
       sodipodi:nodetypes="cccccccccccccccccccc" />
    <path
       style="fill:#000065;stroke:#000065;stroke-width:0.26458332px;stroke-linecap:butt;stroke-linejoin:miter;stroke-opacity:1"
       d="m 8.6081443,91.888323 c 0.0024,-0.794735 0.215722,-2.11032 0.718288,-2.305199 0.192101,-0.07256 0.5974292,-0.461826 1.6203207,0.818513 -0.784013,0.278257 -1.9860467,1.951469 -2.3386087,1.486686 z"
       id="path4573"
       inkscape:connector-curvature="0"
       sodipodi:nodetypes="cccc" />
    <path
       style="fill:#000065;stroke:#000065;stroke-width:0.26458332px;stroke-linecap:butt;stroke-linejoin:miter;stroke-opacity:1"
       d="m 13.369395,94.257084 c 0.699518,-0.494781 1.609682,-0.811327 1.535528,-1.960753 -0.583907,-1.751543 -4.336106,0.856992 -4.417595,1.063059 -0.9813817,1.095197 -0.8747307,1.801812 -0.09449,2.267858 1.469988,1.929157 -0.5256975,2.281021 -0.8740697,2.315104 l -1.015812,0.14174 C 9.8755455,96.76415 13.38808,94.811229 16.60582,93.949977 c -2.124564,0.08193 -4.994166,1.383021 -8.5044647,3.732517 -0.59859,0.533099 -0.870209,1.574684 0.708705,1.606396 0.9614752,-0.149384 4.0769387,-1.382993 2.7167047,-3.307291 -0.906502,-0.840447 -0.981684,-0.993028 0.448847,-2.196986 1.574178,-1.107417 3.032003,-2.095839 1.889882,-0.425223 z"
       id="path4575"
       inkscape:connector-curvature="0"
       sodipodi:nodetypes="ccccccccccccc" />
    <path
       style="display:inline;fill:#000065;stroke:#000065;stroke-width:0.26458332px;stroke-linecap:butt;stroke-linejoin:miter;stroke-opacity:1"
       d="m 32.672773,96.166557 c 0.704955,0.29027 2.616029,0.21532 5.38616,-2.64583 1.097942,-1.50099 -1.144451,-1.89788 -2.126115,-1.41741 -2.57248,0.9469 -5.355288,4.84005 -5.338916,5.6224 -0.263762,2.826413 4.78936,0.0557 7.323291,-1.84264 -0.356543,0.96243 -1.850871,3.354785 -0.188989,3.307295 0.334352,-1.962315 4.520518,-5.242165 5.102677,-5.291665 -1.476694,2.9006 0.396676,3.04409 2.126117,1.70089 -0.451963,1.45289 -1.775767,3.31056 0.09449,3.685275 -0.370776,-2.184405 4.789736,-5.112525 5.811385,-5.811395 -2.725853,3.94118 -3.913481,7.722093 1.511903,3.59078 0.08009,3.549013 2.598014,1.05219 4.819197,-0.70871 -1.053931,3.531695 0.893833,2.697275 3.732516,0.56697 0.04224,0.89155 -0.967763,2.384395 0.755949,2.315105 -0.882647,-1.640075 4.107474,-4.615355 5.953125,-5.764145 -1.998379,2.23665 -4.656804,8.390573 0.614212,4.11049 0.656389,3.129863 3.532415,-0.17723 5.858632,-1.88988 -0.539724,1.55424 -1.778781,5.688923 3.354541,1.08669 -0.202721,4.060043 3.547078,1.80996 4.724699,0.89769 1.21113,-1.06742 2.204294,-2.1516 2.26786,-3.30729 2.153248,0.33958 2.873854,-0.43511 3.449031,-1.32292 -0.905779,0.90449 -3.316157,1.72308 -3.543527,-0.0945 -0.42532,0.20447 -1.095931,-0.25684 -0.944938,1.51191 -1.270445,1.72488 -1.514142,2.54505 -3.449035,3.73251 -3.918346,1.927123 0.360381,-5.6801 5.102678,-6.23661 -2.414328,0.33254 -4.399897,0.58503 -7.465028,3.82701 -4.025345,3.721665 -3.75524,2.64252 -1.74814,-0.37797 2.963776,-5.02886 5.457294,-8.728771 7.276039,-8.787949 -0.999482,-1.068197 -1.940477,-0.962357 -2.36235,-0.661458 l -4.488463,6.094867 c -0.14065,1.932518 -4.89448,5.349104 -5.536991,5.631407 -1.888425,0.829729 -1.534208,-0.0012 -0.40463,-1.235713 1.642216,-1.794773 3.589955,-3.868486 5.763052,-4.390703 -2.503092,-0.240578 -5.488102,2.494991 -7.428205,4.577969 -1.302972,0.95455 -3.732308,3.466843 -1.086683,-1.03944 0.895868,-1.34711 1.769123,-2.60377 2.315106,-2.55133 -0.808818,-1.42821 -1.056473,-1.28536 -1.370165,-1.08669 l -5.008185,3.82701 c 0.651841,-1.49045 1.382784,-2.70403 2.4096,-2.88207 -0.346477,-0.9292 -1.409538,-0.59057 -1.81901,-0.44884 -1.100653,1.33145 -1.468496,2.07072 -3.354538,4.016 -2.156188,1.91513 -4.041682,2.22164 -0.165367,-1.77177 l -0.992188,-1.22842 c -3.281207,2.859 -8.58016,7.284863 -4.677454,2.26786 1.074231,-1.25299 4.93836,-4.76343 6.283853,-2.45685 0.407003,-1.22824 -2.754429,-2.93459 -8.315475,2.45685 -2.835874,2.64929 -4.291185,3.638415 -2.173364,0.33073 l 2.55134,-2.92932 c 0.09416,-0.62077 -0.763866,-1.42929 -1.181177,-1.18118 l -5.527899,4.016 c 0.617377,-1.92004 2.289654,-3.15176 2.882066,-3.2128 -0.512659,-1.17087 -0.935705,-1.31119 -1.322917,-1.03943 l -3.071055,3.26005 c -0.942038,1.20145 -4.574308,2.09058 0.897694,-2.12612 -0.218445,-0.35251 -0.262988,-1.27494 -1.228423,-1.13393 l -5.24442,4.06324 c 0.535778,-0.79462 1.250251,-2.17371 2.787576,-3.02381 -0.437659,-0.90265 -1.018093,-1.46319 -1.46466,-1.03943 -2.03576,3.78283 -6.538401,5.92365 -7.276041,6.28386 -3.075868,1.385185 -1.525378,-2.10057 2.55134,-5.05544 1.360713,-0.9383 1.847481,-0.34622 0.566965,0.8977 -2.019752,2.16537 -2.992033,2.23581 -3.968746,2.3151 z"
       id="path4533"
       inkscape:connector-curvature="0"
       sodipodi:nodetypes="ccccccccccccccccccccccccccccccsscccccccccccccccccccccccccccccc" />
    <path
       style="display:inline;fill:#000065;fill-opacity:1;stroke:#000065;stroke-width:0.26458332px;stroke-linecap:butt;stroke-linejoin:miter;stroke-opacity:1"
       d="m 33.362749,86.14318 c -5.016438,4.188068 -8.858878,10.686472 -10.583334,15.82776 -0.172057,0.72625 1.29058,0.54315 1.606399,-0.23624 -0.638783,0.34577 -1.322486,0.75742 -0.661458,-0.8032 1.596358,-3.663315 7.383756,-13.520043 11.339286,-13.559899 -0.358575,-1.178179 -1.236511,-1.558161 -1.700893,-1.228421 z"
       id="path32"
       inkscape:connector-curvature="0"
       sodipodi:nodetypes="cccccc" />
    <path
       style="display:inline;fill:#000065;stroke:#000065;stroke-width:0.26458332px;stroke-linecap:butt;stroke-linejoin:miter;stroke-opacity:1"
       d="m 22.377815,95.450843 c -0.356846,-0.439289 -0.735827,-1.088412 -0.02362,-1.441034 2.815445,-1.220658 5.585642,-2.464324 12.024368,-1.842635 -5.708279,0.02015 -10.185829,0.81447 -12.000748,3.283669 z"
       id="path4529"
       inkscape:connector-curvature="0"
       sodipodi:nodetypes="cccc" />
    <path
       style="display:inline;fill:#000065;stroke:#000065;stroke-width:0.26458332px;stroke-linecap:butt;stroke-linejoin:miter;stroke-opacity:1"
       d="m 21.568794,92.525888 c -9.38188,-2.448312 6.653419,-12.246669 23.987438,-6.548104 -19.46367,-3.7638 -29.963604,4.193605 -23.987438,6.548104 z"
       id="path4531"
       inkscape:connector-curvature="0"
       sodipodi:nodetypes="ccc" />
    <path
       style="fill:#000065;stroke:#000065;stroke-width:0.26458332px;stroke-linecap:butt;stroke-linejoin:miter;stroke-opacity:1"
       d="m 94.41296,102.8955 c -2.346939,-1.66452 11.76524,-17.69753 12.16076,-15.635264 -0.36714,-0.749354 -0.71564,-1.522004 -2.47224,-0.534538 C 92.528416,99.895436 93.037771,101.79913 94.41296,102.8955 Z"
       id="path4572"
       inkscape:connector-curvature="0"
       sodipodi:nodetypes="cccc" />
    <path
       style="display:inline;fill:#000065;stroke:#000065;stroke-width:0.26458332px;stroke-linecap:butt;stroke-linejoin:miter;stroke-opacity:1"
       d="m 92.229607,93.200373 c -3.755806,-2.348535 7.371719,-8.934402 12.828943,-8.619443 2.84918,0.08964 11.23778,1.117797 1.26953,7.416729 -8.089054,5.398144 -16.291565,5.819868 -10.623974,2.204974 -6.88563,3.755672 1.92501,3.954803 10.891244,-0.734992 2.76235,-1.382494 4.0974,-2.850068 4.84172,-4.124309 2.24229,-3.838696 -1.60777,-5.831261 -6.97987,-5.363758 -4.657479,0.297586 -9.899407,2.867897 -12.038513,4.668865 -3.096432,2.606964 -2.631471,5.071942 -0.18908,4.551934 z"
       id="path4574"
       inkscape:connector-curvature="0"
       sodipodi:nodetypes="cccccscsc" />
    <path
       style="fill:#000065;stroke:#000065;stroke-width:0.26458332px;stroke-linecap:butt;stroke-linejoin:miter;stroke-opacity:1"
       d="m 110.28209,92.00427 c -1.38758,1.78179 -2.82292,3.324718 -4.04245,5.946749 -0.0235,1.780208 1.04786,0.930494 1.40316,0.133633 1.76899,-2.766311 4.37968,-4.37709 4.57699,-4.276312 -0.2358,0.103557 -1.78521,4.5177 2.47224,1.603618 -3.17868,6.328832 2.35466,2.261171 3.0402,1.336347 -0.11492,1.332298 0.2321,4.491355 6.51469,-0.501131 -1.10626,4.821506 2.57752,1.550406 4.14268,0.100226 -0.30272,4.25196 3.18376,2.515491 4.87767,1.236123 1.58884,-1.335377 1.99932,-2.356526 2.27179,-3.34087 2.35329,0.509178 2.53156,-0.504155 3.20723,-1.169305 -1.27961,0.885178 -2.50096,1.455776 -3.34087,-0.03341 -0.88209,0.02053 -1.22265,0.447198 -1.03567,1.269531 -0.53775,1.406766 -1.58931,2.579981 -3.107,3.541321 -2.58743,1.996494 -2.06218,-0.508506 -0.93545,-1.971114 2.04843,-3.253985 4.4962,-4.070468 5.84652,-3.741772 -3.77788,-0.862128 -5.51803,2.047591 -7.88445,3.57473 -5.99622,5.399126 -2.36325,0.367303 -1.67043,-0.567949 2.76021,-4.939096 5.80288,-8.64832 6.98241,-8.586034 -0.6046,-0.745362 -1.63112,-0.846937 -2.27179,-0.434311 l -6.41447,9.15398 c -2.05299,2.067166 -7.4377,4.98093 -5.44561,1.637025 0.75038,-1.259443 2.04139,-3.235644 4.07586,-4.04245 0.65985,-0.233099 2.36742,-0.694701 -0.7684,1.770661 -0.56201,0.47037 -2.35947,1.408942 -3.27405,1.436574 1.67385,0.849836 4.43883,-1.212146 5.17834,-2.03793 1.94957,-2.671595 -1.57701,-2.307416 -2.27179,-1.737254 -2.62733,1.536585 -3.74965,2.677115 -4.71062,3.775184 -3.41752,3.095519 -3.06643,2.138004 -1.80407,0.200451 2.14225,-3.359434 2.0997,-2.742669 2.73951,-3.107008 -0.45522,-0.648441 -0.79935,-1.616235 -1.9377,-0.300678 -0.59022,0.723988 -1.04681,1.148104 -1.77067,1.937703 -3.27257,2.644621 -2.06239,0.243398 -1.36975,-0.567947 1.01687,-1.330757 1.20984,-1.282023 1.73725,-1.302938 -0.15773,-0.735939 -1.0107,-1.476094 -1.70384,-0.968854 -1.58157,1.236271 -3.21663,2.508206 -4.54358,3.57473 0.47397,-0.932959 1.19956,-2.335356 2.53906,-2.639285 -0.55231,-0.710904 -0.83946,-1.303624 -1.30294,-0.902034 z"
       id="path4591"
       inkscape:connector-curvature="0"
       sodipodi:nodetypes="cccccccccccccccccccccccccccccccccccccc" />
    <path
       style="fill:#000065;stroke:#000065;stroke-width:0.26458332px;stroke-linecap:butt;stroke-linejoin:miter;stroke-opacity:1"
       d="m 119.1688,90.968601 c -0.87098,1.141403 -0.89777,0.671173 -0.80181,-0.03341 0.30685,-1.168854 0.84499,-1.736332 2.03793,-0.601355 -0.59674,0.119237 -1.02916,0.354042 -1.23612,0.634765 z"
       id="path4593"
       inkscape:connector-curvature="0"
       sodipodi:nodetypes="cccc" />
    <path
       style="fill:#000065;stroke:#000065;stroke-width:0.26458332px;stroke-linecap:butt;stroke-linejoin:miter;stroke-opacity:1"
       d="m 126.1011,91.3528 c -0.65424,-0.254244 -1.48316,-1.262949 -0.20045,-1.804067 3.20594,-1.17104 9.18697,-0.882056 14.49937,-0.116932 -4.853,-0.266807 -13.68228,-0.994306 -14.29892,1.920999 z"
       id="path4595"
       inkscape:connector-curvature="0"
       sodipodi:nodetypes="cccc" />
    <path
       style="fill:#000065;stroke:#000065;stroke-width:0.26458332px;stroke-linecap:butt;stroke-linejoin:miter;stroke-opacity:1"
       d="m 158.08854,95.160713 c -3.58512,-1.349336 -12.96714,-2.03653 -18.23735,3.685267 -4.19218,4.99999 0.65623,6.2212 5.66964,3.59077 5.47568,-3.124241 11.81369,-10.216827 13.4654,-13.323656 3.49429,-8.069285 -5.4997,-4.761358 -8.55171,-2.456846 -8.35279,7.188042 -1.87002,6.599536 -1.13393,5.433409 -4.33844,1.196306 -1.18489,-1.727982 1.84264,-4.582962 2.16423,-1.826396 11.20751,-5.725569 6.89806,0.897694 -1.64162,2.865217 -6.27025,9.339107 -12.99293,12.945681 -5.99629,2.83547 -7.40472,1.60475 -3.44903,-3.118302 3.01728,-3.312198 9.54722,-5.227653 16.48921,-3.071055 z"
       id="path4597"
       inkscape:connector-curvature="0"
       sodipodi:nodetypes="ccccccccccc" />
    <path
       style="fill:#000065;stroke:#000065;stroke-width:0.26458332px;stroke-linecap:butt;stroke-linejoin:miter;stroke-opacity:1"
       d="m 159.50595,92.562126 -2.78757,4.110492 c -1.44454,1.86719 0.1287,3.173785 1.6064,1.55915 l 3.0238,-2.362351 c -0.76328,1.332596 -1.85327,3.239976 -0.0472,3.212799 0.87717,-1.029728 0.54396,-2.528577 5.5279,-5.527903 -2.32947,3.095821 -2.93906,6.211004 -0.61421,3.921504 1.56506,-1.618223 3.0165,-3.009192 4.20498,-3.874257 -4.23355,6.328707 -1.26749,5.219557 -1.13393,5.197173 1.36629,-0.707415 1.74309,-1.084999 2.4096,-1.559152 0.72478,4.259029 5.80413,-0.635861 7.84301,-1.937127 -2.3899,3.117046 -1.26361,3.224299 -0.75595,3.921502 1.45372,-3.128938 5.14323,-5.111733 6.09487,-5.811382 -5.73858,8.598216 1.08667,3.968749 1.08667,3.968749 0.96247,3.975507 4.86458,0.20108 8.50447,-2.882069 -1.38338,1.388326 -9.56572,6.646096 -6.61459,2.126118 0.81301,-1.091738 1.47173,-2.358409 3.73252,-3.590774 1.98112,-1.037809 1.23495,0.185724 0.14174,1.133927 -1.1807,1.04226 -2.35386,2.129778 -3.77976,1.700892 0.15466,0.07276 1.23013,1.078029 4.67746,-1.559149 2.48331,-3.171137 -1.30835,-2.510234 -2.92932,-1.417413 -1.21267,0.882937 -2.42535,2.431384 -3.63802,3.779763 -3.49195,3.103744 -2.6596,0.608288 -1.37016,-0.661458 1.84765,-2.932376 2.06617,-2.742235 2.45684,-2.882069 -0.0586,-1.422965 -1.16743,-1.09236 -1.98438,-0.661458 l -4.67745,3.732514 c 1.17055,-2.825946 1.78221,-2.999284 2.92932,-3.354539 -0.42414,-0.774945 -0.92059,-1.332989 -1.84264,-0.614211 -3.81825,4.913016 -4.02261,4.118941 -6.56734,5.575149 -2.64912,1.291542 -3.25426,0.753593 -0.23623,-2.976563 4.05298,-3.501352 3.34402,-1.696326 2.83482,-0.94494 -1.18485,1.325791 -2.927,2.520056 -4.11049,2.031621 0.89932,0.628334 2.84093,0.07264 4.63021,-1.606396 1.8756,-1.682156 0.92955,-3.452377 -2.69308,-1.46466 -1.09081,0.738672 -2.61542,1.881228 -3.77976,3.96875 -3.11734,2.471629 -2.73773,1.311733 -1.88989,-0.04725 1.49893,-2.257652 2.48557,-3.490723 2.97657,-3.732514 -0.47588,-0.650104 -0.99418,-1.158804 -1.84264,-0.566965 l -4.86644,4.630208 c 1.26703,-2.592366 1.90376,-3.444094 2.83482,-3.96875 -0.54793,-0.497263 -1.00256,-1.251069 -2.03162,-0.425223 l -4.39397,3.685268 c 0.81154,-1.452151 1.66906,-2.83532 2.97656,-3.543528 -0.45899,-0.751361 -0.99096,-1.101311 -1.70089,-0.472469 l -2.88207,3.401785 c -4.98739,4.3255 -2.83736,1.221403 -2.59859,0.755952 1.92572,-3.188086 2.54207,-3.5392 2.97656,-3.496278 -0.61654,-0.554007 -1.20924,-0.917235 -1.70093,-0.472468 z"
       id="path4599"
       inkscape:connector-curvature="0"
       sodipodi:nodetypes="cccccccccccccccccccccccccccccccccccccccccccccccc" />
    <path
       style="fill:#000065;stroke:#000065;stroke-width:0.26458332px;stroke-linecap:butt;stroke-linejoin:miter;stroke-opacity:1"
       d="m 160.68713,91.664434 c 0.0353,-0.655256 0.008,-1.301575 0.89769,-2.078871 0.80341,-0.0979 1.24361,0.240056 1.41741,0.897695 -1.28012,0.308989 -1.76618,0.750321 -2.3151,1.181176 z"
       id="path4601"
       inkscape:connector-curvature="0"
       sodipodi:nodetypes="cccc" />
    <path
       style="fill:#000065;stroke:#000065;stroke-width:0.26458332px;stroke-linecap:butt;stroke-linejoin:miter;stroke-opacity:1"
       d="m 179.50775,90.7463 c 0.14466,-0.69171 0.6535,-1.941967 1.46465,-2.693082 0.4561,-0.445211 1.10742,0.103863 1.41741,0.897695 -0.99083,-0.07674 -2.2778,1.290745 -2.88206,1.795387 z"
       id="path4601-6"
       inkscape:connector-curvature="0"
       sodipodi:nodetypes="cccc" />
    <path
       style="fill:#000065;stroke:#000065;stroke-width:0.26458332px;stroke-linecap:butt;stroke-linejoin:miter;stroke-opacity:1"
       d="m 195.36644,91.829796 c 1.02697,1.516978 2.76377,1.601143 4.70108,0.0945 0.82811,0.679453 0.67924,1.073252 0.73233,1.511903 -1.72652,0.256926 -5.13023,1.904347 -7.34691,4.134115 3.3733,-0.59693 5.03378,0.02414 5.57514,1.441035 -1.46998,-1.670451 -3.80463,-1.555677 -6.11848,-0.47247 -0.59846,0.590582 -1.59853,-0.307099 -0.94495,-0.992186 l 6.1185,-4.204987 c -1.98409,0.352329 -2.71029,0.03847 -3.28367,-0.496094 -0.18971,-0.452214 0.13291,-0.75073 0.56696,-1.015816 z"
       id="path4618"
       inkscape:connector-curvature="0"
       sodipodi:nodetypes="cccccccccc" />
  </g>
</svg>
