<?xml version="1.0" standalone="no"?>
<!DOCTYPE svg PUBLIC "-//W3C//DTD SVG 20010904//EN"
 "http://www.w3.org/TR/2001/REC-SVG-20010904/DTD/svg10.dtd">
<svg version="1.0" xmlns="http://www.w3.org/2000/svg"
 width="225.000000pt" height="225.000000pt" viewBox="0 0 225.000000 225.000000"
 preserveAspectRatio="xMidYMid meet">
<metadata>
Created by potrace 1.15, written by Peter Selinger 2001-2017
</metadata>
<g transform="translate(0.000000,225.000000) scale(0.100000,-0.100000)"
fill="#000000" stroke="none">
<path d="M880 1734 c-269 -25 -526 -67 -609 -100 -48 -19 -66 -45 -86 -121
-19 -73 -19 -146 1 -212 23 -80 31 -81 246 -42 230 43 245 47 265 77 14 22 15
34 5 87 -6 33 -10 62 -9 63 1 0 24 4 51 8 l49 6 -6 -77 c-4 -48 -11 -81 -19
-86 -7 -4 -69 -39 -138 -78 -166 -94 -284 -173 -342 -229 l-48 -46 0 -272 0
-272 880 0 880 0 0 270 0 270 -47 45 c-59 57 -175 135 -355 239 l-143 82 -3
78 -3 77 38 -6 c63 -11 62 -10 52 -52 -28 -122 -16 -131 228 -177 105 -20 202
-36 215 -36 77 0 109 163 62 311 -24 77 -64 99 -236 134 -191 38 -383 56 -633
59 -137 2 -270 2 -295 0z m418 -220 c24 -7 27 -25 16 -108 l-7 -46 -187 0
c-214 0 -200 -7 -200 97 0 41 4 52 18 56 26 7 334 8 360 1z m-68 -425 c90 -40
141 -115 141 -203 0 -91 -39 -155 -121 -200 -200 -109 -442 61 -375 263 19 57
91 131 147 148 57 19 158 15 208 -8z"/>
</g>
</svg>
