<?xml version="1.0" standalone="no"?>
<!DOCTYPE svg PUBLIC "-//W3C//DTD SVG 20010904//EN"
 "http://www.w3.org/TR/2001/REC-SVG-20010904/DTD/svg10.dtd">
<svg version="1.0" xmlns="http://www.w3.org/2000/svg"
 width="626.000000pt" height="626.000000pt" viewBox="0 0 626.000000 626.000000"
 preserveAspectRatio="xMidYMid meet">
<metadata>
Created by potrace 1.15, written by Peter Selinger 2001-2017
</metadata>
<g transform="translate(0.000000,626.000000) scale(0.100000,-0.100000)"
fill="#000000" stroke="none">
<path d="M2865 6249 c-564 -57 -1035 -224 -1485 -527 -311 -209 -585 -477
-802 -782 -88 -125 -95 -136 -193 -311 -289 -520 -429 -1174 -375 -1754 60
-645 294 -1226 693 -1720 100 -124 331 -355 457 -456 186 -150 468 -326 657
-410 37 -17 82 -36 98 -44 163 -73 486 -167 690 -200 457 -73 862 -56 1300 55
438 112 840 313 1195 599 122 98 363 339 461 461 752 935 909 2199 407 3290
-91 199 -258 465 -407 650 -102 127 -332 357 -459 459 -490 394 -1039 618
-1681 686 -145 16 -423 18 -556 4z"/>
</g>
</svg>
